<?xml version="1.0" encoding="UTF-8" standalone="no"?>
<!DOCTYPE svg PUBLIC "-//W3C//DTD SVG 1.1//EN"
 "http://www.w3.org/Graphics/SVG/1.1/DTD/svg11.dtd">
<!-- Generated by graphviz version 2.38.0 (20140413.2041)
 -->
<!-- Title: Rhythm Pages: 1 -->
<svg width="356pt" height="116pt"
 viewBox="0.00 0.00 356.09 116.00" xmlns="http://www.w3.org/2000/svg" xmlns:xlink="http://www.w3.org/1999/xlink">
<g id="graph0" class="graph" transform="scale(1 1) rotate(0) translate(4 112)">
<title>Rhythm</title>
<polygon fill="white" stroke="none" points="-4,4 -4,-112 352.085,-112 352.085,4 -4,4"/>
<!-- rhythm -->
<g id="node1" class="node"><title>rhythm</title>
<ellipse fill="none" stroke="black" cx="176.142" cy="-90" rx="39.7935" ry="18"/>
<text text-anchor="middle" x="176.142" y="-86.3" font-family="Times New Roman,serif" font-size="14.00">Rhythm</text>
</g>
<!-- mono -->
<g id="node2" class="node"><title>mono</title>
<ellipse fill="none" stroke="black" cx="85.1424" cy="-18" rx="85.2851" ry="18"/>
<text text-anchor="middle" x="85.1424" y="-14.3" font-family="Times New Roman,serif" font-size="14.00">Monophonic rhythm</text>
</g>
<!-- rhythm&#45;&gt;mono -->
<g id="edge1" class="edge"><title>rhythm&#45;&gt;mono</title>
<path fill="none" stroke="black" d="M156.844,-74.1548C144.66,-64.7826 128.674,-52.4855 114.888,-41.8815"/>
<polygon fill="black" stroke="black" points="116.704,-38.8621 106.643,-35.5391 112.436,-44.4105 116.704,-38.8621"/>
</g>
<!-- poly -->
<g id="node3" class="node"><title>poly</title>
<ellipse fill="none" stroke="black" cx="268.142" cy="-18" rx="79.8859" ry="18"/>
<text text-anchor="middle" x="268.142" y="-14.3" font-family="Times New Roman,serif" font-size="14.00">Polyphonic rhythm</text>
</g>
<!-- rhythm&#45;&gt;poly -->
<g id="edge2" class="edge"><title>rhythm&#45;&gt;poly</title>
<path fill="none" stroke="black" d="M195.653,-74.1548C207.971,-64.7826 224.133,-52.4855 238.07,-41.8815"/>
<polygon fill="black" stroke="black" points="240.566,-44.3798 246.405,-35.5391 236.328,-38.809 240.566,-44.3798"/>
</g>
</g>
</svg>
