<?xml version="1.0" encoding="UTF-8" standalone="no"?>
<!DOCTYPE svg PUBLIC "-//W3C//DTD SVG 1.1//EN"
 "http://www.w3.org/Graphics/SVG/1.1/DTD/svg11.dtd">
<!-- Generated by graphviz version 2.38.0 (20140413.2041)
 -->
<!-- Title: Feature extraction structure Pages: 1 -->
<svg width="370pt" height="116pt"
 viewBox="0.00 0.00 369.58 116.00" xmlns="http://www.w3.org/2000/svg" xmlns:xlink="http://www.w3.org/1999/xlink">
<g id="graph0" class="graph" transform="scale(1 1) rotate(0) translate(4 112)">
<title>Feature extraction structure</title>
<polygon fill="white" stroke="none" points="-4,4 -4,-112 365.585,-112 365.585,4 -4,4"/>
<!-- generic -->
<g id="node1" class="node"><title>generic</title>
<ellipse fill="none" stroke="black" cx="183.392" cy="-90" rx="69.5877" ry="18"/>
<text text-anchor="middle" x="183.392" y="-86.3" font-family="Times New Roman,serif" font-size="14.00">Generic features</text>
</g>
<!-- mono -->
<g id="node2" class="node"><title>mono</title>
<ellipse fill="none" stroke="black" cx="88.3922" cy="-18" rx="88.2844" ry="18"/>
<text text-anchor="middle" x="88.3922" y="-14.3" font-family="Times New Roman,serif" font-size="14.00">Monophonic features</text>
</g>
<!-- generic&#45;&gt;mono -->
<g id="edge1" class="edge"><title>generic&#45;&gt;mono</title>
<path fill="none" stroke="black" d="M161.358,-72.7646C148.83,-63.5334 132.947,-51.8297 119.2,-41.7006"/>
<polygon fill="black" stroke="black" points="121.093,-38.7477 110.966,-35.6334 116.94,-44.3831 121.093,-38.7477"/>
</g>
<!-- poly -->
<g id="node3" class="node"><title>poly</title>
<ellipse fill="none" stroke="black" cx="278.392" cy="-18" rx="83.3857" ry="18"/>
<text text-anchor="middle" x="278.392" y="-14.3" font-family="Times New Roman,serif" font-size="14.00">Polyphonic features</text>
</g>
<!-- generic&#45;&gt;poly -->
<g id="edge2" class="edge"><title>generic&#45;&gt;poly</title>
<path fill="none" stroke="black" d="M205.426,-72.7646C218.045,-63.4665 234.068,-51.6599 247.883,-41.4806"/>
<polygon fill="black" stroke="black" points="250.175,-44.1395 256.149,-35.3898 246.022,-38.5041 250.175,-44.1395"/>
</g>
</g>
</svg>
